<?xml version="1.0" standalone="no"?>
<!DOCTYPE svg PUBLIC "-//W3C//DTD SVG 20010904//EN"
 "http://www.w3.org/TR/2001/REC-SVG-20010904/DTD/svg10.dtd">
<svg version="1.0" xmlns="http://www.w3.org/2000/svg"
 width="183.000000pt" height="174.000000pt" viewBox="0 0 183.000000 174.000000"
 preserveAspectRatio="xMidYMid meet">
<metadata>
Created by potrace 1.10, written by Peter Selinger 2001-2011
</metadata>
<g transform="translate(0.000000,174.000000) scale(0.100000,-0.100000)"
fill="#000000" stroke="none">
<path d="M735 1670 c-257 -68 -477 -269 -563 -515 -83 -239 -53 -496 82 -705
20 -30 36 -58 36 -62 0 -7 -110 -129 -151 -168 -72 -69 -64 -162 17 -190 48
-16 72 -1 180 114 l99 106 48 -34 c64 -45 202 -104 290 -123 90 -19 295 -13
382 11 33 9 92 32 131 51 451 219 599 786 312 1197 -22 32 -52 65 -65 74 -24
15 -27 15 -43 -2 -9 -11 -22 -46 -29 -78 -11 -60 -11 -60 33 -150 87 -180 103
-346 47 -510 -16 -48 -41 -107 -55 -131 -33 -56 -125 -157 -137 -149 -5 3 -9
54 -9 114 0 101 -9 142 -24 104 -3 -9 -6 -72 -6 -140 l0 -125 -94 -45 c-51
-24 -98 -44 -103 -44 -5 0 -9 36 -8 85 l1 85 49 41 c61 50 118 111 153 164 15
22 45 65 68 95 77 104 150 256 142 297 -2 10 -28 -32 -60 -98 -143 -292 -376
-497 -691 -608 -49 -17 -103 -31 -120 -31 -42 0 -26 -12 59 -43 112 -40 215
-53 321 -38 152 21 253 71 365 179 122 117 186 244 209 417 8 67 8 99 -5 171
-17 98 -52 198 -91 256 -25 38 -25 39 -12 111 l13 72 48 -65 c63 -84 123 -212
144 -303 21 -94 20 -260 -2 -351 -60 -251 -252 -468 -488 -554 -238 -86 -509
-51 -714 93 l-64 45 -38 -42 c-69 -79 -166 -183 -177 -190 -35 -25 -105 18
-105 64 0 16 31 57 92 124 51 55 101 110 111 121 18 21 18 22 -21 80 -50 74
-68 110 -100 197 -33 95 -43 317 -18 415 64 251 247 461 478 551 192 74 442
65 631 -24 79 -38 184 -109 166 -114 -8 -2 -37 -13 -66 -24 l-52 -20 -44 26
c-24 15 -77 38 -118 52 -101 35 -281 44 -393 20 -366 -82 -595 -473 -486 -831
26 -84 78 -181 123 -229 42 -44 87 -53 194 -37 243 35 477 160 676 363 113
115 235 278 208 278 -5 0 -38 -34 -72 -76 -45 -55 -64 -72 -70 -62 -5 7 -9 93
-9 190 0 215 5 208 -136 208 -88 0 -94 -1 -113 -26 -16 -20 -21 -41 -21 -88
l0 -61 -114 3 c-109 4 -114 3 -130 -19 -11 -17 -16 -46 -16 -102 l0 -78 -22
15 c-16 11 -46 16 -104 16 -67 0 -86 -4 -108 -21 -23 -18 -26 -28 -26 -79 l0
-59 -27 15 c-44 22 -164 19 -195 -6 -31 -24 -38 -18 -38 34 0 94 28 205 76
297 162 314 537 428 883 267 l84 -39 47 16 c59 20 99 59 84 83 -18 30 -147
110 -219 137 -113 42 -179 53 -314 53 -92 1 -145 -4 -196 -18z m575 -577 l0
-208 -97 -97 c-54 -54 -100 -98 -103 -98 -3 0 -6 137 -6 305 l-2 305 104 0
104 0 0 -207z m-260 -203 l0 -239 -101 -55 c-56 -31 -104 -56 -105 -56 -2 0
-4 134 -4 298 l0 297 105 -3 105 -3 0 -239z m-270 -148 l0 -217 -87 -24 c-49
-13 -94 -25 -100 -28 -10 -4 -13 49 -13 241 l0 246 100 0 100 0 0 -218z m-258
-97 c2 -99 2 -182 1 -184 -7 -12 -84 43 -114 82 -45 60 -68 126 -76 213 l-5
69 95 0 96 0 3 -180z m551 -225 c-3 -11 -9 -17 -14 -14 -5 3 -9 -28 -9 -69 l0
-74 -31 -7 c-17 -3 -65 -6 -105 -6 -72 0 -74 1 -74 25 0 22 12 31 95 70 56 27
102 56 111 70 20 30 34 33 27 5z m-261 -135 c-5 -28 -9 -29 -48 -14 l-28 10
24 14 c41 22 58 19 52 -10z"/>
</g>
</svg>
